<svg width="266" height="93" viewBox="0 0 266 93" fill="none" xmlns="http://www.w3.org/2000/svg">
<path d="M159.314 33.5288C166.74 33.5288 170.795 39.8839 170.795 46.2203C170.795 52.5614 166.735 58.9165 159.314 58.9165C151.893 58.9165 147.433 52.5614 147.433 46.2203C147.433 39.8839 151.893 33.5288 159.314 33.5288ZM45.7191 33.5288C38.3025 33.5288 33.8376 39.8839 33.8376 46.2203C33.8376 52.5614 38.3025 58.9165 45.7191 58.9165C53.1403 58.9165 57.2001 52.5614 57.2001 46.2203C57.2001 39.8839 53.1403 33.5288 45.7191 33.5288ZM265.078 29.0034V92.149H28.9026C13.0498 92.149 0.200027 79.2992 0.200027 63.4512V0.300903H171.2V26.3357C167.82 24.3803 163.9 23.2629 159.719 23.2629C147.037 23.2629 136.757 33.5428 136.757 46.225C136.757 58.9072 147.037 69.1917 159.719 69.1917C164.892 69.1917 169.664 67.483 173.5 64.5965C175.595 67.3852 178.929 69.1917 182.686 69.1917V0.300903H236.376C252.228 0.300903 265.078 13.1507 265.078 29.0034ZM69.0908 23.2629C65.3336 23.2629 62.0001 25.0647 59.9051 27.8535C56.0641 24.9716 51.292 23.2629 46.1241 23.2629C33.4419 23.2629 23.1621 33.5428 23.1621 46.225C23.1621 58.9072 33.4419 69.1917 46.1241 69.1917C51.292 69.1917 56.0641 67.483 59.9051 64.5965C60.231 65.0294 60.5848 65.4392 60.9712 65.8256C63.0477 67.9067 65.9202 69.1917 69.0908 69.1917V23.2629ZM126.496 23.4631H115.01V46.4252C115.01 52.7663 110.95 59.1213 103.529 59.1213C96.108 59.1213 91.6478 52.7663 91.6478 46.4252V34.1387C91.6478 31.741 90.9401 29.5109 89.725 27.6766C87.7323 24.6457 84.3755 22.6577 80.5718 22.6577V46.4298C80.5718 59.1167 90.8517 69.3965 103.534 69.3965C108.702 69.3965 113.478 67.6879 117.315 64.8013C119.405 67.5901 122.743 69.3965 126.501 69.3965V23.4631H126.496ZM242.116 46.2296C242.116 33.5428 231.836 23.2629 219.154 23.2629C213.986 23.2629 209.21 24.9716 205.373 27.8581C203.283 25.0694 199.945 23.2629 196.187 23.2629V69.1917H207.668V46.2296C207.668 39.8885 211.728 33.5335 219.149 33.5335C226.571 33.5335 231.031 39.8885 231.031 46.2296V58.5161C231.031 60.9138 231.739 63.1439 232.954 64.9782C234.946 68.0091 238.303 69.9971 242.107 69.9971V46.2296H242.116Z" fill="#080811"/>
</svg>
