<svg width="24" height="24" viewBox="0 0 24 24" fill="none" xmlns="http://www.w3.org/2000/svg">
<path d="M16.5739 0.51151C16.5251 0.456885 14.7641 0.533072 13.2318 2.19625C11.6994 3.85799 11.9352 5.76411 11.9697 5.81298C12.0042 5.86186 14.1546 5.93804 15.5275 4.00462C16.9003 2.07119 16.6228 0.567572 16.5739 0.51151ZM21.3378 17.3776C21.2688 17.2396 17.9956 15.6037 18.3004 12.4585C18.6051 9.31184 20.7082 8.44934 20.7412 8.35591C20.7743 8.26247 19.8831 7.22029 18.9386 6.69273C18.2452 6.32078 17.4777 6.10768 16.6918 6.06886C16.5366 6.06454 15.9975 5.93229 14.8892 6.23561C14.159 6.43542 12.513 7.08229 12.0602 7.10816C11.606 7.13404 10.2547 6.35779 8.80142 6.15223C7.87137 5.97254 6.88525 6.34054 6.17944 6.62373C5.47507 6.90548 4.13532 7.7076 3.19808 9.8394C2.26083 11.9698 2.75102 15.345 3.10177 16.3944C3.45251 17.4423 4.0002 19.1601 4.93169 20.4136C5.75969 21.8281 6.85793 22.8099 7.31649 23.1434C7.77506 23.4769 9.0688 23.6983 9.96579 23.2397C10.6874 22.797 11.9898 22.5425 12.5044 22.5612C13.0176 22.5799 14.0296 22.7826 15.066 23.336C15.8868 23.6192 16.6631 23.5013 17.4408 23.1851C18.2184 22.8674 19.344 21.6628 20.6579 19.2205C21.1567 18.0849 21.3838 17.471 21.3378 17.3776Z" fill="#26262E"/>
</svg>
