<svg width="76" height="76" viewBox="0 0 76 76" fill="none" xmlns="http://www.w3.org/2000/svg">
<g filter="url(#filter0_dd_4_20384)">
<rect x="6" y="6" width="64" height="64" rx="32" fill="#FDFEFF"/>
<path d="M39.6293 37.3481L43.7034 41.4221C44.0021 41.7209 44.1515 42.1012 44.1515 42.5629C44.1515 43.0246 44.0021 43.4049 43.7034 43.7036C43.4046 44.0024 43.0244 44.1518 42.5626 44.1518C42.1009 44.1518 41.7207 44.0024 41.4219 43.7036L36.8589 39.1407C36.696 38.9777 36.5737 38.7941 36.4923 38.5898C36.4108 38.3867 36.37 38.1765 36.37 37.9592V31.4814C36.37 31.0197 36.5265 30.6324 36.8394 30.3195C37.1512 30.0077 37.5379 29.8518 37.9997 29.8518C38.4614 29.8518 38.8487 30.0077 39.1616 30.3195C39.4734 30.6324 39.6293 31.0197 39.6293 31.4814V37.3481ZM37.9997 52.6666C34.7133 52.6666 31.7663 51.6953 29.1589 49.7528C26.5515 47.8114 24.7997 45.2789 23.9034 42.1555C23.7676 41.6666 23.8154 41.2049 24.0468 40.7703C24.2771 40.3357 24.6367 40.0641 25.1256 39.9555C25.5873 39.8468 26.0018 39.9484 26.369 40.2602C26.7351 40.5731 26.9861 40.9604 27.1219 41.4221C27.8281 43.8123 29.1932 45.7407 31.2172 47.2073C33.2401 48.674 35.5009 49.4073 37.9997 49.4073C41.1775 49.4073 43.8729 48.3003 46.0859 46.0861C48.3 43.8731 49.4071 41.1777 49.4071 37.9999C49.4071 34.8221 48.3 32.1262 46.0859 29.9121C43.8729 27.699 41.1775 26.5925 37.9997 26.5925C36.1256 26.5925 34.3737 27.0271 32.7441 27.8962C31.1145 28.7654 29.7429 29.9604 28.6293 31.4814H31.4812C31.9429 31.4814 32.3302 31.6373 32.6431 31.9491C32.9549 32.262 33.1108 32.6493 33.1108 33.111C33.1108 33.5728 32.9549 33.9595 32.6431 34.2713C32.3302 34.5842 31.9429 34.7407 31.4812 34.7407H24.9626C24.5009 34.7407 24.1141 34.5842 23.8023 34.2713C23.4895 33.9595 23.333 33.5728 23.333 33.111V26.5925C23.333 26.1308 23.4895 25.7435 23.8023 25.4306C24.1141 25.1188 24.5009 24.9629 24.9626 24.9629C25.4244 24.9629 25.8117 25.1188 26.1246 25.4306C26.4364 25.7435 26.5923 26.1308 26.5923 26.5925V28.7925C27.9775 27.0542 29.6685 25.7098 31.6653 24.7592C33.6611 23.8086 35.7725 23.3333 37.9997 23.3333C40.0367 23.3333 41.945 23.72 43.7246 24.4935C45.503 25.2682 47.0512 26.3138 48.369 27.6306C49.6857 28.9484 50.7314 30.4966 51.506 32.275C52.2796 34.0546 52.6663 35.9629 52.6663 37.9999C52.6663 40.037 52.2796 41.9447 51.506 43.7232C50.7314 45.5027 49.6857 47.0509 48.369 48.3676C47.0512 49.6854 45.503 50.7317 43.7246 51.5063C41.945 52.2798 40.0367 52.6666 37.9997 52.6666Z" fill="#26262E"/>
</g>
<defs>
<filter id="filter0_dd_4_20384" x="0" y="0" width="76" height="76" filterUnits="userSpaceOnUse" color-interpolation-filters="sRGB">
<feFlood flood-opacity="0" result="BackgroundImageFix"/>
<feColorMatrix in="SourceAlpha" type="matrix" values="0 0 0 0 0 0 0 0 0 0 0 0 0 0 0 0 0 0 127 0" result="hardAlpha"/>
<feOffset dx="2" dy="2"/>
<feGaussianBlur stdDeviation="2"/>
<feColorMatrix type="matrix" values="0 0 0 0 0.0313726 0 0 0 0 0.0313726 0 0 0 0 0.0666667 0 0 0 0.08 0"/>
<feBlend mode="multiply" in2="BackgroundImageFix" result="effect1_dropShadow_4_20384"/>
<feColorMatrix in="SourceAlpha" type="matrix" values="0 0 0 0 0 0 0 0 0 0 0 0 0 0 0 0 0 0 127 0" result="hardAlpha"/>
<feOffset/>
<feGaussianBlur stdDeviation="3"/>
<feColorMatrix type="matrix" values="0 0 0 0 0.0313726 0 0 0 0 0.0313726 0 0 0 0 0.0666667 0 0 0 0.04 0"/>
<feBlend mode="multiply" in2="effect1_dropShadow_4_20384" result="effect2_dropShadow_4_20384"/>
<feBlend mode="normal" in="SourceGraphic" in2="effect2_dropShadow_4_20384" result="shape"/>
</filter>
</defs>
</svg>
